<?xml version="1.0" standalone="no"?>
<!DOCTYPE svg PUBLIC "-//W3C//DTD SVG 20010904//EN"
 "http://www.w3.org/TR/2001/REC-SVG-20010904/DTD/svg10.dtd">
<svg version="1.0" xmlns="http://www.w3.org/2000/svg"
 width="544.000000pt" height="544.000000pt" viewBox="0 0 544.000000 544.000000"
 preserveAspectRatio="xMidYMid meet">
<metadata>
Created by potrace 1.11, written by Peter Selinger 2001-2013
</metadata>
<g transform="translate(0.000000,544.000000) scale(0.100000,-0.100000)"
fill="#000000" stroke="none">
<path d="M2400 5285 c-1014 -137 -1830 -817 -2150 -1795 -43 -129 -81 -291
-107 -455 -25 -153 -25 -622 0 -773 60 -368 170 -682 341 -975 133 -228 269
-401 455 -580 383 -366 857 -600 1381 -682 143 -22 476 -31 626 -16 575 58
1106 303 1521 704 452 437 720 975 805 1617 16 123 16 517 0 640 -66 499 -243
934 -539 1323 -108 142 -352 384 -498 493 -350 262 -723 419 -1161 489 -140
23 -535 29 -674 10z m244 -1932 c3 -98 8 -226 11 -285 4 -86 3 -108 -8 -108
-7 0 -51 11 -98 25 -235 71 -465 90 -735 61 -205 -22 -188 -25 -180 30 7 57
64 163 85 162 9 -1 45 16 80 37 240 142 566 248 782 254 l57 1 6 -177z m-989
-403 c0 -18 -33 -26 -47 -12 -6 6 -7 15 -3 22 10 16 50 8 50 -10z m2088 -125
c-4 -15 -56 -12 -61 3 -3 10 5 13 29 10 19 -2 33 -7 32 -13z m-2059 -44 c4 -5
8 -56 10 -113 2 -57 11 -131 21 -166 21 -73 43 -94 146 -141 278 -125 637 -46
721 159 23 56 60 156 65 178 12 48 23 18 23 -60 1 -154 19 -992 26 -1164 l7
-171 -119 -6 c-145 -7 -265 -29 -312 -57 l-35 -21 -23 23 c-12 13 -97 106
-188 207 -171 190 -279 338 -353 486 l-40 80 -8 403 -7 403 31 -15 c16 -9 32
-20 35 -25z"/>
</g>
</svg>
