<?xml version="1.0" standalone="no"?>
<!DOCTYPE svg PUBLIC "-//W3C//DTD SVG 20010904//EN"
 "http://www.w3.org/TR/2001/REC-SVG-20010904/DTD/svg10.dtd">
<svg version="1.0" xmlns="http://www.w3.org/2000/svg"
 width="545.000000pt" height="545.000000pt" viewBox="0 0 545.000000 545.000000"
 preserveAspectRatio="xMidYMid meet">
<metadata>
Created by potrace 1.11, written by Peter Selinger 2001-2013
</metadata>
<g transform="translate(0.000000,545.000000) scale(0.100000,-0.100000)"
fill="#000000" stroke="none">
<path d="M2575 4544 c-154 -9 -344 -48 -480 -99 -78 -30 -300 -142 -314 -159
-5 -6 -32 -68 -60 -137 -27 -70 -72 -161 -100 -203 -90 -138 -121 -247 -128
-451 l-5 -150 -127 -130 c-131 -134 -178 -205 -240 -363 -12 -29 -39 -76 -60
-105 -50 -67 -69 -105 -77 -156 -6 -36 -3 -43 25 -72 29 -29 36 -31 81 -27 71
7 146 60 199 138 46 69 46 70 27 -53 -11 -75 -11 -98 2 -160 11 -48 16 -129
16 -247 0 -160 -3 -193 -38 -380 -45 -245 -56 -370 -45 -507 10 -139 32 -242
85 -406 51 -155 46 -151 152 -124 105 28 164 91 221 242 68 175 63 234 -35
429 l-66 131 6 75 c3 41 12 122 20 180 26 182 37 460 26 651 -5 96 -10 234
-10 307 l0 133 43 -23 42 -23 2 -95 c3 -129 26 -230 61 -263 34 -33 138 -81
222 -104 89 -23 255 -23 335 1 154 46 236 118 280 244 15 42 33 89 41 104 8
14 14 34 14 45 0 37 15 46 52 34 31 -10 36 -17 47 -64 15 -67 94 -243 123
-274 55 -58 237 -120 385 -130 150 -10 262 20 342 92 22 21 41 34 41 30 0 -4
-32 -122 -70 -263 -150 -544 -144 -606 97 -1024 57 -99 106 -200 133 -275 24
-65 54 -142 67 -171 l23 -53 51 28 c74 40 169 147 222 251 96 188 136 363 144
637 8 293 -34 542 -129 763 l-41 97 -7 175 c-6 138 -12 190 -30 245 -42 131
-103 227 -226 355 l-83 86 30 59 c25 52 31 78 39 187 6 82 16 145 30 180 24
64 26 165 5 257 -18 76 -80 198 -105 206 -9 3 -22 16 -28 29 -18 40 -377 173
-636 237 -190 46 -431 72 -591 63z m380 -949 c175 -27 410 -102 576 -185 54
-28 56 -30 99 -127 54 -123 123 -304 117 -309 -2 -2 -51 7 -108 21 -233 56
-447 69 -666 39 -154 -21 -284 -13 -413 25 -156 47 -277 64 -455 64 -143 0
-320 -13 -414 -30 l-33 -6 7 52 c7 55 72 182 90 179 6 -1 48 19 96 45 115 63
238 119 340 155 83 29 279 77 349 85 91 10 323 6 415 -8z m-1250 -575 c0 -18
-52 -27 -67 -12 -17 17 2 33 35 30 20 -2 32 -8 32 -18z m2069 -106 c21 -8 20
-30 0 -38 -22 -9 -54 2 -54 18 0 25 21 32 54 20z"/>
<path d="M2557 1360 c-108 -10 -210 -33 -244 -56 -29 -18 -30 -54 -3 -109 31
-64 81 -107 137 -116 66 -11 569 -11 617 0 21 5 51 21 66 36 33 32 75 107 85
152 l6 32 -68 20 c-37 11 -97 25 -133 31 -95 14 -350 20 -463 10z"/>
</g>
</svg>
