<svg xmlns="http://www.w3.org/2000/svg" viewBox="0 0 310.74 300.88">
  <title>faceAsset 1</title>
  <g id="Layer_2" data-name="Layer 2">
    <g id="Layer_1-2" data-name="Layer 1">
      <g>
        <path d="M17.49,144c3.83,22.81-6.78,46.32-2.38,69,.43,2.22,1,4.62,0,6.65-.84,1.7-2.59,2.72-3.89,4.09-3,3.13-3.45,8-2.3,12.15s3.67,7.78,6.14,11.31l15.06,21.47c3.67,5.23,7.47,10.59,12.81,14.1,5.89,3.86,13.06,5.1,20,6.24L99,295c6,1,12.18,2,18.16.8a43.35,43.35,0,0,0,12.35-5,146.61,146.61,0,0,0,55-53.56c9.89-16.81,16.44-36.2,14.9-55.64a71.7,71.7,0,0,0-11.05-32.88c-3.27-5.1-7.26-9.85-12.36-13.11-4.85-3.1-10.47-4.73-16.07-6.06C113.23,118.34,63.68,125,18.45,140.95" style="fill: #ccab69"/>
        <path d="M16,144.39c3.23,21.26-5.31,42.12-3.2,63.38.24,2.37,1,4.79,1.05,7.15.14,4.23-1.94,5.58-4.22,8.33a13.57,13.57,0,0,0-2.81,9.81c.68,8.53,7.56,15.9,12.24,22.58C24.77,263.7,30,272.78,37,279.79c6.14,6.16,13.95,8.63,22.33,10.13,11.16,2,22.39,3.71,33.58,5.56,9.14,1.51,18.78,3.83,27.88.89,8.8-2.85,17.06-8.51,24.48-13.91A149,149,0,0,0,165,265.23c12.89-13.43,23.62-29.4,30.12-46.9,6.89-18.55,8.25-39,1-57.61-3.25-8.31-7.94-16.61-14.56-22.7-6.92-6.37-15.84-8.83-24.82-10.8-46.22-10.11-94.45-3.15-138.66,12.27-1.81.63-1,3.53.8,2.89,36.5-12.73,75.49-19.72,114.19-15.89a183,183,0,0,1,29.79,5.27c10.23,2.77,17.87,8.06,23.73,16.95,11.11,16.84,13.92,37.46,9.31,56.94-8.27,35-34.93,65.48-65.72,83-4,2.26-8.1,4.47-12.59,5.49-6,1.37-12.18.37-18.18-.61-9.81-1.6-19.61-3.24-29.41-4.86-8.79-1.45-18.64-2.18-26.29-7.19-8.12-5.32-13.27-15-18.73-22.76-3.18-4.53-6.41-9-9.54-13.6-3-4.36-6.11-9.24-5.45-14.76.63-5.29,5.45-6.54,6.83-11.1C18,215.18,16,210.13,15.7,206c-1.55-21,6.43-41.41,3.24-62.42-.29-1.9-3.18-1.09-2.89.8Z"/>
      </g>
      <path d="M35.46,88.14a68,68,0,0,1,1.79-36.21C38.53,48.1,40.2,44.3,43,41.36c6.31-6.72,16.52-7.45,25.69-8.45,24.41-2.67,48-10.28,71.33-17.85L177.32,3c5.22-1.69,10.62-3.4,16.08-2.85,3.86.39,7.51,1.9,11,3.48,26.24,11.7,50.89,29,65.81,53.58,9.83,16.18,15,34.68,20.07,52.92,5,17.86,9.94,35.84,11.69,54.29,1.11,11.66.93,23.48,3.29,34.94,2.55,12.41,8,25.25,4,37.25-2.11,6.25-6.61,11.39-11.37,16-23,22-53.52,34.06-83.22,45.56a36.84,36.84,0,0,1-9.35,2.7c-3.72.39-7.45-.36-11.11-1.11l-44.2-9c-8.36-1.7-16.83-3.41-25.34-2.9-9,.55-18.17,3.59-27,1.54-4.41-1-8.44-3.27-12.33-5.59-2.26-1.35-4.59-2.8-6-5-4-6.26,1.1-14,4.13-20.8,5.5-12.26,3.79-27.32-3.83-38.39a29.27,29.27,0,0,0-5.31-6,23.17,23.17,0,0,0-25.52-2.31C46,212.83,43.3,215.13,40,215.3c-7.46.4-10.5-9.33-11.12-16.77-.4-4.82-.78-9.8.74-14.39,1.43-4.35,4.55-8.33,4.34-12.9-.31-6.75-7.49-10.9-14-12.84s-13.88-3.47-17.61-9.1c-6-9.11,1.87-21.54-.84-32.12C1,114.73-.25,112.31,0,109.8a12.7,12.7,0,0,1,2.34-5.2L35.45,53.53"/>
    </g>
  </g>
</svg>
