<?xml version="1.0" encoding="UTF-8" standalone="no"?>
<!-- Created with Inkscape (http://www.inkscape.org/) -->

<svg
   xmlns:dc="http://purl.org/dc/elements/1.1/"
   xmlns:cc="http://creativecommons.org/ns#"
   xmlns:rdf="http://www.w3.org/1999/02/22-rdf-syntax-ns#"
   xmlns:svg="http://www.w3.org/2000/svg"
   xmlns="http://www.w3.org/2000/svg"
   xmlns:sodipodi="http://sodipodi.sourceforge.net/DTD/sodipodi-0.dtd"
   xmlns:inkscape="http://www.inkscape.org/namespaces/inkscape"
   width="139mm"
   height="144mm"
   viewBox="0 0 139 144"
   version="1.1"
   id="svg8"
   inkscape:version="0.92.0 r"
   sodipodi:docname="main.svg">
  <defs
     id="defs2" />
  <sodipodi:namedview
     id="base"
     pagecolor="#ffffff"
     bordercolor="#666666"
     borderopacity="1.0"
     inkscape:pageopacity="0.0"
     inkscape:pageshadow="2"
     inkscape:zoom="0.83121799"
     inkscape:cx="238.35004"
     inkscape:cy="231.72257"
     inkscape:document-units="mm"
     inkscape:current-layer="layer1"
     showgrid="false"
     showguides="true"
     inkscape:window-width="1338"
     inkscape:window-height="743"
     inkscape:window-x="0"
     inkscape:window-y="0"
     inkscape:window-maximized="1" />
  <metadata
     id="metadata5">
    <rdf:RDF>
      <cc:Work
         rdf:about="">
        <dc:format>image/svg+xml</dc:format>
        <dc:type
           rdf:resource="http://purl.org/dc/dcmitype/StillImage" />
        <dc:title />
      </cc:Work>
    </rdf:RDF>
  </metadata>
  <g
     inkscape:label="Layer 1"
     inkscape:groupmode="layer"
     id="layer1"
     transform="translate(0,-153)">
    <g
       id="g6265"
       transform="translate(195.92058,168.74667)">
      <ellipse
         ry="70.233551"
         rx="68.502243"
         cy="58.119053"
         cx="-126.99999"
         id="path6133-5"
         style="fill:#2bc3f3;fill-opacity:1;stroke:none;stroke-width:0;stroke-miterlimit:4;stroke-dasharray:none" />
      <g
         id="g6214"
         transform="translate(88.446431,-58.208336)">
        <path
           style="fill:#ffe26e;fill-opacity:1;fill-rule:evenodd;stroke:#000000;stroke-width:0;stroke-linecap:butt;stroke-linejoin:miter;stroke-miterlimit:4;stroke-dasharray:none;stroke-opacity:1"
           d="m -222.91146,159.64346 c -8.82576,-9.19481 -17.58942,-17.18788 -21.92262,-29.10417 l -0.75595,15.87499 -0.30239,-12.1708 -2.53243,21.99818 3.89027,9.27235 -8.80396,-4.77442 v -0.52917 l 1.98436,-21.16668 -2.17335,2.45686 3.87426,-19.70201 -2.92932,-6.56734 -4.91369,5.48066 3.07106,-5.90589 2.9873,-2.39202 c 0,0 0.15568,-2.76277 3.1682,-5.71815 3.01253,-2.95538 4.51546,-2.9211 4.51546,-2.9211 l 3.52677,-6.204448 -3.56716,-7.28548 12.37872,5.10268 -0.75594,-15.30803 14.31584,-1.32292 8.83519,-11.1503 -0.75595,10.39435 12.94568,3.40178 5.66965,1.88989 v 0 l 1.96439,17.741488 5.40615,14.57547 6.04762,6.4256 -10.20536,13.04017 11.98187,14.13631 -5.1294,17.22835 -2.88372,3.03117 c -2.01587,-3.65377 -4.15774,-11.71725 -4.15774,-11.71725 l 0.94494,-4.53572 -1.70089,-8.12648 -6.4256,-3.21281 -10.39435,17.00893 z"
           id="path3691-3"
           inkscape:connector-curvature="0"
           sodipodi:nodetypes="cccccccccccccccscccccccccccccccccccccccc" />
        <path
           style="fill:#00155c;fill-opacity:1;fill-rule:evenodd;stroke:#000000;stroke-width:0;stroke-linecap:butt;stroke-linejoin:miter;stroke-miterlimit:4;stroke-dasharray:none;stroke-opacity:1"
           d="m -193.99628,96.294642 c -8.44631,-8.7377 -35.71778,-9.97694 -46.23121,1.27566 l -4.51209,7.984758 -0.0945,25.5134 -0.75595,15.87499 v 0 l 4.15774,9.82738 c -1.86381,5.16735 -1.6551,11.83402 -9.98665,11.89628 -9.02568,-23.36104 2.02941,-27.00736 -2.10859,-46.2921 l 0.94494,-6.61459 c -2.90114,9.56173 -14.96737,8.43912 -6.4256,-1.32293 0,0 2.33979,-6.71395 5.35231,-9.66933 3.01253,-2.95538 5.04204,-5.071738 5.04204,-5.071738 -0.24181,-7.446811 0.53292,-12.119529 4.81919,-17.76488 l 2.74033,-6.99255 c 18.35899,-11.682664 37.11652,-6.561482 53.48363,0.56697 l 3.2128,7.18154 -2.45684,17.386908 c 8.13706,7.88188 9.63593,11.95217 9.07143,22.48958 8.58002,16.41371 5.46287,42.66833 -6.23661,47.43601 -2.01587,-3.65377 -4.15774,-11.71725 -4.15774,-11.71725 l 0.94494,-4.53572 -1.70089,-8.12648 -2.44675,-5.75927 3.98925,-27.86482 z"
           id="path3691-6"
           inkscape:connector-curvature="0"
           sodipodi:nodetypes="cccccccccccscccccccccccccc" />
        <path
           style="fill:#ee3d62;fill-opacity:1;fill-rule:evenodd;stroke:none;stroke-width:0;stroke-linecap:butt;stroke-linejoin:miter;stroke-miterlimit:4;stroke-dasharray:none;stroke-opacity:1"
           d="m -241.37948,100.82694 c -4.98926,-1.410899 -2.20391,-18.023103 0.0991,-22.205446 24.03112,-11.74932 37.1619,-7.29472 54.92043,-1.890262 3.8197,4.933774 2.92098,10.99278 2.92098,10.99278 -1.76595,3.302529 -1.06706,6.698245 -1.5785,9.15942 -0.25849,1.1484 -1.34829,3.00262 -1.79979,3.894138 -0.4515,0.89153 -2.00192,-0.783238 -2.37982,0.25619 -17.33749,-9.912956 -32.81743,-11.930584 -52.18241,-0.20682 z"
           id="path3738-5"
           inkscape:connector-curvature="0"
           sodipodi:nodetypes="cccccscc" />
        <path
           style="fill:#ee3d62;fill-opacity:1;fill-rule:evenodd;stroke:none;stroke-width:0;stroke-linecap:butt;stroke-linejoin:miter;stroke-miterlimit:4;stroke-dasharray:none;stroke-opacity:1"
           d="m -244.53458,165.51401 c 6.23389,-10.79937 1.18087,-12.24594 -1.05545,-19.09973 3.26615,-20.10774 0.9473,-23.08134 1.30123,-34.62144 l 0.53454,-8.01809 -1.87089,1.60362 0.80181,2.40542 -1.06908,11.49259 v 14.9671 c 0.0563,5.63677 -6.78921,11.19241 -2.78484,14.29891 5.79781,4.00345 3.15511,10.51452 4.14268,16.97162 z"
           id="path3764-3"
           inkscape:connector-curvature="0"
           sodipodi:nodetypes="cccccccccc" />
        <path
           style="fill:#ee3d62;fill-opacity:1;fill-rule:evenodd;stroke:none;stroke-width:0;stroke-linecap:butt;stroke-linejoin:miter;stroke-miterlimit:4;stroke-dasharray:none;stroke-opacity:1"
           d="m -186.91613,162.73906 c -4.10917,-8.47176 -8.24921,-12.87591 -8.36834,-19.45779 -0.11914,-6.58187 3.78263,-15.34147 6.84447,-29.97769 0.77396,-3.69968 -6.08545,-17.008938 -6.08545,-17.008938 17.61406,6.243508 19.31576,44.147108 14.7789,63.500008 -5.36143,9.42665 -2.24537,13.09652 -7.16958,2.94441 z"
           id="path3781"
           inkscape:connector-curvature="0"
           sodipodi:nodetypes="sssccs" />
        <path
           style="fill:#ee3d62;fill-opacity:1;fill-rule:evenodd;stroke:none;stroke-width:0;stroke-linecap:butt;stroke-linejoin:miter;stroke-miterlimit:4;stroke-dasharray:none;stroke-opacity:1"
           d="m -259.66964,118.91652 c 2.84569,-4.95558 3.06589,-4.33232 8.23172,-6.50252 -3.20358,3.16386 -3.92563,10.05974 -8.23172,6.50252 z"
           id="path3783"
           inkscape:connector-curvature="0"
           sodipodi:nodetypes="ccc" />
        <path
           style="fill:#000000;fill-rule:evenodd;stroke:#000000;stroke-width:0.26458332px;stroke-linecap:butt;stroke-linejoin:miter;stroke-opacity:1"
           d="m -222.91146,159.64346 v 0 0 c 0,0 -3.12707,0.36632 -4.47988,-4.80618 -0.71619,-2.86477 18.83442,-3.70177 24.40481,-0.67784 -0.63662,3.50139 -2.72702,4.72806 -2.72702,4.72806 0.79577,1.75069 -17.19791,0.75596 -17.19791,0.75596 z"
           id="path4590"
           inkscape:connector-curvature="0"
           sodipodi:nodetypes="ccccccc" />
        <path
           style="fill:#000000;fill-rule:evenodd;stroke:#000000;stroke-width:0.26458332px;stroke-linecap:butt;stroke-linejoin:miter;stroke-opacity:1"
           d="m -217.69549,116.21352 c 0,0 -0.98511,5.22383 -4.00904,6.81537 -6.21303,4.03919 -14.41819,2.34149 -18.70887,-0.80181 -1.43239,-1.11408 -1.87088,-7.75081 -1.46998,-8.81989 0.40091,-1.06908 -4.00904,-2.6727 -4.00904,-2.6727 l 1.06908,-4.00904 c 10.63002,-1.33392 17.23893,-1.86814 26.86058,1.46998 l 5.47903,0.40091 c 10.29498,-1.96188 17.3368,-0.5372 25.52424,1.87089 l 0.4009,2.53906 -2.67269,2.93996 c 1.06468,13.26368 -16.14516,11.05412 -21.78247,6.5481 0,0 -3.33207,-5.87871 -3.34087,-8.68626 l -2.40542,-0.66817 c -0.13787,1.17193 -0.20937,2.166 -0.93545,3.0736 z"
           id="path4611"
           inkscape:connector-curvature="0"
           sodipodi:nodetypes="ccccccccccccccc" />
      </g>
    </g>
    <path
       style="fill:none;fill-rule:evenodd;stroke:#000000;stroke-width:0.26458332px;stroke-linecap:butt;stroke-linejoin:miter;stroke-opacity:1"
       d="m 275.82214,176.72871 -7.48353,-6.94901"
       id="path6269"
       inkscape:connector-curvature="0" />
    <path
       style="fill:#000000;fill-opacity:0.1372549;fill-rule:evenodd;stroke:#000000;stroke-width:0;stroke-linecap:butt;stroke-linejoin:miter;stroke-miterlimit:4;stroke-dasharray:none;stroke-opacity:1"
       d="m 69.676528,296.79132 -0.47247,-26.42054 -7.748509,-0.18898 -18.898809,-20.7887 -3.023809,-8.31547 -0.755952,16.40416 4.157742,9.82738 -3.10229,8.74318 -6.88436,3.1531 -1.9196,-8.45669 -1.43228,-9.12897 3.41664,-12.03771 -2.173352,-16.66873 0.944941,-7.14376 -4.913691,6.00982 -2.173358,-2.32455 0.66145,-4.47903 10.394349,-14.74107 4.819191,-9.41159 1.718509,-11.34502 0.795761,-0.31831 13.644219,-7.05433 9.591138,-4.37669 -0.0472,-21.16666 c -93.219995,9.43688 -81.394484,141.98457 3.40174,140.22916 z"
       id="path6271"
       inkscape:connector-curvature="0"
       sodipodi:nodetypes="ccccccccccccccccccccccccc" />
    <path
       style="fill:#000000;fill-opacity:0.06896554;fill-rule:evenodd;stroke:#000000;stroke-width:0;stroke-linecap:butt;stroke-linejoin:miter;stroke-miterlimit:4;stroke-dasharray:none;stroke-opacity:1"
       d="m 42.556738,249.3931 25.78738,-7.71752 0.85994,28.6952 -7.748511,-0.18898 z"
       id="path6273"
       inkscape:connector-curvature="0"
       sodipodi:nodetypes="ccccc" />
    <path
       style="fill:#000000;fill-opacity:0.09482757;fill-rule:evenodd;stroke:#000000;stroke-width:0;stroke-linecap:butt;stroke-linejoin:miter;stroke-miterlimit:4;stroke-dasharray:none;stroke-opacity:1"
       d="m 69.204058,270.37078 -0.85994,-28.6952 22.1211,6.16782 -1.94658,5.10268 -9.86518,16.47976 z"
       id="path6275"
       inkscape:connector-curvature="0" />
    <ellipse
       style="fill:#ffffff;fill-opacity:1;stroke:none;stroke-width:0;stroke-miterlimit:4;stroke-dasharray:none"
       id="path4500"
       cx="40.541431"
       cy="218.90706"
       rx="0.99776101"
       ry="0.58493966" />
    <ellipse
       style="fill:#ffffff;fill-opacity:1;stroke:none;stroke-width:0;stroke-miterlimit:4;stroke-dasharray:none"
       id="path4500-3"
       cx="95.651558"
       cy="222.19763"
       rx="0.99776101"
       ry="0.58493966" />
    <path
       style="fill:#000000;fill-opacity:0.09482757;fill-rule:evenodd;stroke:#000000;stroke-width:0;stroke-linecap:butt;stroke-linejoin:miter;stroke-miterlimit:4;stroke-dasharray:none;stroke-opacity:1"
       d="m 69.204061,270.37077 -2.88207,-92.64196 31.685082,9.54075 c 4.587967,5.94904 3.051337,10.49666 1.472776,16.50423 1.270641,4.75551 -1.927568,6.83895 -1.927568,6.83895 l 9.638399,11.90625 -0.56696,10.58333 4.7247,13.04018 0.37797,18.89881 -6.99256,13.98512 -4.34673,1.5119 -4.686908,-11.71725 v 0 l -5.212262,-6.93266 -1.969288,-8.94235 -9.86518,16.47975 z"
       id="path6267"
       inkscape:connector-curvature="0"
       sodipodi:nodetypes="ccccccccccccccccc" />
  </g>
</svg>
