<svg xmlns="http://www.w3.org/2000/svg" viewBox="0 0 156.9 167.53">
  <title>psy-leftAsset 1</title>
  <g id="Layer_2" data-name="Layer 2">
    <g id="Layer_1-2" data-name="Layer 1">
      <g>
        <g>
          <path d="M21.41,163.92A397.13,397.13,0,0,0,1.52,8.21Q67.26,7,132.83,1.53A398.23,398.23,0,0,0,111.2,161.2a790.89,790.89,0,0,1-89.14,1.39" style="fill: #fff"/>
          <path d="M22.91,163.92A402.08,402.08,0,0,0,3,7.81L1.52,9.71Q67.27,8.5,132.83,3l-1.45-1.9A403,403,0,0,0,109.7,161.2l1.5-1.5a808.51,808.51,0,0,1-89.14,1.39c-1.93-.08-1.93,2.92,0,3a808.51,808.51,0,0,0,89.14-1.39,1.52,1.52,0,0,0,1.5-1.5A400.75,400.75,0,0,1,134.28,1.93,1.51,1.51,0,0,0,132.83,0Q67.3,5.5,1.52,6.71A1.51,1.51,0,0,0,.07,8.61,399.8,399.8,0,0,1,19.91,163.92c-.14,1.93,2.87,1.92,3,0Z"/>
        </g>
        <g>
          <path d="M106.16,8.44l27.61,55.64a116.87,116.87,0,0,1,7.14,16.45,116.85,116.85,0,0,1,3.36,15.13l6.31,35.9a127.13,127.13,0,0,1-19.73,2.13c-2.15.06-4.41,0-6.29-1-2-1.14-3.27-3.29-4.34-5.36C105.14,98,102.93,64,101,31.14c-.4-7-.77-14.19,1.9-20.63" style="fill: #ffed5b"/>
          <path d="M104.86,9.2c9.87,19.88,19.94,39.68,29.59,59.67,9.37,19.4,11,42.09,14.68,63.1l1-1.85a104.24,104.24,0,0,1-19.33,2.08c-4.48,0-7.21-1.67-9.33-5.62a101.47,101.47,0,0,1-4.27-9.21,164.15,164.15,0,0,1-9.52-33.7,337.38,337.38,0,0,1-4.15-35.72c-.85-11.83-3.45-25.67.79-37,.67-1.81-2.22-2.59-2.89-.8-4.62,12.41-1.68,27.61-.7,40.5a303.08,303.08,0,0,0,5.42,40.77c2.76,12.83,6.61,26.6,13.4,38,2.5,4.18,5.55,5.84,10.44,5.87A114.83,114.83,0,0,0,151,133a1.53,1.53,0,0,0,1-1.85L146.21,98.1c-1.79-10.17-4-19.74-8.39-29.13-9.72-20.61-20.24-40.88-30.37-61.29C106.59,6,104,7.47,104.86,9.2Z"/>
        </g>
        <g>
          <path d="M11,10C37.23,40.57,38.24,84.7,37.91,125c1.15.37.8-2.12-.39-1.89s-1.63,1.67-1.84,2.86l-6.35,36.34a238.08,238.08,0,0,0,68.73,2.27c3.9-.44,8.3-1.29,10.37-4.62,1.34-2.15,1.35-4.85,1.33-7.39-.52-51.18.31-104,20.4-151L34.7,12c-6.5.71-14.5.73-17.83-4.9" style="fill: #ffb0fb"/>
          <path d="M10,11C36.35,42.4,36.71,86.11,36.41,125a1.53,1.53,0,0,0,1.9,1.45l.52-.07a1.5,1.5,0,0,0,1-1,2.67,2.67,0,0,0-1.65-3.59c-2.42-.61-3.48,2-4,3.83-1.51,5.53-2,11.57-3,17.21l-3.34,19.13a1.52,1.52,0,0,0,1,1.85,244.29,244.29,0,0,0,51,3.66c7.34-.26,15.34-.26,22.52-2,5.07-1.26,8.25-4.42,8.77-9.72.75-7.82,0-16.05,0-23.92,0-8.49.16-17,.47-25.45a396.35,396.35,0,0,1,4.8-50.91A239.09,239.09,0,0,1,131.6,1.9,1.5,1.5,0,0,0,130.16,0L71.71,6.42,42.49,9.62c-7.31.8-19.33,3.93-24.33-3.3-1.09-1.58-3.69-.08-2.59,1.51C19.36,13.31,25.79,14.1,32,13.71c10.64-.66,21.29-2.28,31.89-3.44L130.16,3l-1.45-1.9c-11.52,27.33-16.82,56.64-19,86.1-1.15,15.41-1.5,30.86-1.52,46.31q0,5.44,0,10.89c0,3.91.7,8.49-.15,12.33-1.8,8.07-16.08,7-22.39,7.39a240.21,240.21,0,0,1-55.92-3.28l1,1.85,3.34-19.13c.32-1.85,2.66-19.92,3.39-20l1.9,1.45C39.71,85.2,39,41,12.09,8.91,10.85,7.43,8.73,9.56,10,11Z"/>
        </g>
        <g>
          <path d="M106.74,77.21a44.64,44.64,0,0,0-23-13.47c-4.37-1-10.15-.62-11.76,3.57-1.06,2.75.42,6,2.71,7.8s5.24,2.65,8.09,3.4l-13.62-.18a7.55,7.55,0,0,0-2.93.35,5.33,5.33,0,0,0-2.41,2.19A8.92,8.92,0,0,0,74.65,93.94c-4.57-.52-10.15-.6-12.66,3.26-2.2,3.38-.53,8.2,2.63,10.7S72,111.11,76,111.52a110.74,110.74,0,0,0,15.65.49,6.94,6.94,0,0,0,3.59-.82,7,7,0,0,0,2.34-3.62,132.43,132.43,0,0,0,7.15-28.64" style="fill: #ffefd3"/>
          <path d="M107.8,76.15C100.7,68.57,87,59,75.89,62.28c-3.7,1.09-6.22,4.3-5.58,8.26,1,5.91,7.12,8.07,12.12,9.41l.4-2.95c-7.6-.1-20.72-3.35-21.73,7.59-.72,7.86,6.75,12.9,13.94,10.79a1.51,1.51,0,0,0-.4-2.95c-5.66-.57-14-.2-15.06,7-1.23,8.12,7.06,12.26,13.73,13.27a95.45,95.45,0,0,0,15.38.9c3.23,0,6.69.19,8.86-2.63,2.72-3.55,3.7-9.31,4.88-13.54a139.21,139.21,0,0,0,3.72-18.09c.27-1.89-2.62-2.7-2.89-.8a139.21,139.21,0,0,1-3.72,18.09,53.72,53.72,0,0,1-2.8,8.81,8.84,8.84,0,0,1-7.07,5.14,26.37,26.37,0,0,1-4.9,0c-5.9-.13-14.35.21-19.14-3.88-3.74-3.19-4.37-9.23,1.09-11,2.46-.81,5.38-.48,7.91-.22l-.4-2.95c-3.44,1-7.24.28-9.21-3.09s-1.27-7.16,2.15-8.67c4.44-2,10.8-.78,15.65-.72a1.51,1.51,0,0,0,.4-2.95c-3.76-1-15.76-5.87-7.71-11.25,3.08-2.06,7.7-.81,10.94.2a44.31,44.31,0,0,1,19.22,12.26c1.32,1.41,3.44-.71,2.12-2.12Z"/>
        </g>
        <g>
          <path d="M104.54,76.14,96.48,100.7c-1.28,3.92-2.56,8.23-1,12.06a17.81,17.81,0,0,0,4.35,5.69l28.78,28.64c2.39,2.38,4.85,4.81,7.89,6.28,4.46,2.16,9.66,2,14.58,1.5a4.51,4.51,0,0,0,2-.55,4,4,0,0,0,1.42-2.19c2.59-7.62-.88-15.84-4.38-23.08-10.21-21.1-22.83-43.2-44.27-52.67" style="fill: #ffed5b"/>
          <path d="M103.09,75.75c-2.87,8.74-6,17.43-8.6,26.26-1.89,6.48-1.45,11.49,3.22,16.48,6,6.45,12.57,12.52,18.83,18.76,5.4,5.38,10.63,11.88,17,16.14,5,3.37,12.58,4.3,18.43,2.85,5.16-1.28,5.23-8.33,4.72-12.63-.83-7.1-4.46-13.74-7.61-20A194.33,194.33,0,0,0,138.67,105c-8.09-12.51-18.36-23.64-32.07-29.93-1.74-.8-3.27,1.79-1.51,2.59,13.52,6.2,23.51,17.13,31.41,29.49a194.51,194.51,0,0,1,9.66,17.24c3.62,7.17,10,17.31,7.35,25.69-1.18,3.82-2.69,3.4-5.78,3.55a24.24,24.24,0,0,1-7.8-.6c-4.51-1.3-7.74-4.47-11-7.7q-9.26-9.2-18.5-18.41c-3.2-3.18-6.44-6.32-9.59-9.55-4.38-4.47-5.24-8.54-3.47-14.59C100,94,103.12,85.28,106,76.54c.6-1.84-2.29-2.63-2.89-.8Z"/>
        </g>
      </g>
    </g>
  </g>
</svg>
