<svg xmlns="http://www.w3.org/2000/svg" viewBox="0 0 287.28 489.35">
  <title>psy-1Asset 3</title>
  <g id="Layer_2" data-name="Layer 2">
    <g id="Layer_1-2" data-name="Layer 1">
      <g>
        <g>
          <path d="M37.1,309.11a472.09,472.09,0,0,1,97.3-18.36c12-1,25-1.29,35.22,5.1,8.84,5.51,14.29,15.35,16.59,25.51s1.79,20.73,1,31.11a561.26,561.26,0,0,1-19.32,108.35c-4-.69-7.69,2.23-10.87,4.81-15.18,12.28-33.79,20.77-53.27,22.06S64,482.64,50.06,468.95c-13.62-13.39-20.17-32.24-25.54-50.57-7.78-26.53-14-54.44-9.25-81.67,2.4-13.62,9.84-28.72,23.49-30.9" style="fill: #ffed5b"/>
          <path d="M37.5,310.55A479.39,479.39,0,0,1,96,297q15.33-2.54,30.8-4.06c9.46-.92,19.28-2.07,28.74-.53,20.08,3.26,29.52,20.93,30.67,39.84,1.22,20.15-2.2,41.26-5.25,61.12a569,569,0,0,1-14.53,67.05l1.45-1.1c-3.83-.25-6.77,1.3-9.79,3.56-4,3-7.83,6.11-12.05,8.79a96.17,96.17,0,0,1-27.89,12.21c-19.35,4.89-40.52,2.51-57.48-8.37C43.17,464.27,34.44,445,28.36,425.85c-6.57-20.66-12.29-42.19-13.15-63.94-.72-18.07,1.2-50.26,24-54.65,1.89-.36,1.09-3.26-.8-2.89C21.13,307.69,14.78,327,12.94,342.29c-2.94,24.28,2.23,48.69,8.83,72,5.56,19.58,12,40.36,26.66,55.19,13.92,14,34.18,20.73,53.73,19.85a89.11,89.11,0,0,0,32.12-7.88,103.7,103.7,0,0,0,16.08-9c5.06-3.44,11.07-10.52,17.52-10.1a1.51,1.51,0,0,0,1.45-1.1,569.21,569.21,0,0,0,14.24-65.14q2.51-16,4.11-32c1-10.51,2.2-21.22,1.55-31.78-1-16.09-7.55-33.25-23.34-40-8.31-3.56-17.61-3.81-26.5-3.32-10,.55-20.06,1.72-30,3.07a479.45,479.45,0,0,0-72.65,15.7c-1.85.55-1.06,3.45.8,2.89Z"/>
        </g>
        <g>
          <path d="M127.38,269.8c.64,6.5,1.27,13.09.28,19.55s-3.79,12.89-8.92,16.94c-4.54,3.6-10.43,5-16.16,5.84-3.86.56-7.87.89-11.61-.23-6.54-2-11.12-8.12-13-14.67s-1.62-13.51-1.29-20.33c.21-4.35.59-9.13,3.64-12.24,1.94-2,4.66-3,7.3-3.8A172.89,172.89,0,0,1,111,255.11c3.64-.63,7.81-1,10.63,1.37,3.66,3.08,3.35,9.43,7.34,12.07" style="fill: #ffefd3"/>
          <path d="M125.88,269.8c1.4,14.38,1.93,32.81-14.42,38.75-6.57,2.39-15.93,4.26-22.41,1-6.69-3.38-9.79-10.91-10.72-17.93-.88-6.6-1.18-15.11.7-21.57,2.2-7.56,12.15-8.84,18.74-10.54q4.94-1.27,9.94-2.25c3.48-.68,8.62-2.18,12-.23,4.47,2.58,4.11,9.35,8.15,12.61,1.49,1.2,3.63-.91,2.12-2.12-3.95-3.18-3.61-9.15-7.64-12.31-4.55-3.56-11.25-1.69-16.34-.66-7.23,1.45-14.8,3.09-21.64,5.9a13.56,13.56,0,0,0-8.69,11c-2.08,11.82-2,27.91,7,37.07,8.29,8.43,23.12,6.49,32.88,1.64,15.13-7.52,14.76-25.87,13.36-40.28-.18-1.9-3.19-1.92-3,0Z"/>
        </g>
        <g>
          <path d="M85.72,57.79C80.71,45.16,103.36,14.4,134,4.56,161.29-4.18,185.91,6.74,210,16.61c22.86,9.39,45.71,21.71,59.85,42,19.64,28.16,18.56,65.94,10.71,99.36s-21.67,65.58-25.15,99.74c-1.88,18.48-.68,37.11.54,55.65a230.79,230.79,0,0,1-15.66-20.87c-25.16-37.82-23.21-59.29-38-93.24-24.86-57.25-59.11-62.27-54-92,4.31-25.05,32.43-43.63,26.88-50.57-2.73-3.41-11.79-1.71-13.15-1.48-5.2.91-9.54,4.33-14,7.15-13.47,8.51-29.34,12.36-41.58,10.47a27.53,27.53,0,0,1-11.9-4.43A25.78,25.78,0,0,1,85.72,57.79Z" style="fill: #5a3900"/>
          <path d="M87.16,57.39c-3.11-8.75,4.8-19.45,10-25.72A82.8,82.8,0,0,1,130.31,7.47c16.9-6.59,34.61-5.23,51.64.06a292,292,0,0,1,45.71,18.78c13.9,7.11,27.24,16.05,37.2,28.23,10.28,12.57,16.1,28,18.3,44,4.57,33.23-5.29,65.73-14.86,97.16-5.63,18.5-11.2,37.12-13.77,56.35-2.72,20.37-1.48,40.9-.13,61.32l2.56-1.06a208.62,208.62,0,0,1-28.44-43.21c-6.27-13-10.26-26.82-14.35-40.64-8.45-28.54-21-54.68-40.64-77.23-6.41-7.36-13.81-14.22-19.15-22.44-5.16-7.95-6.23-16.57-3.59-25.67,3.75-13,12.94-23.05,21-33.52,3.21-4.19,9.78-12.9,1.52-15.84-4.79-1.71-11.57-.53-16.14,1.42-4.07,1.73-7.57,4.52-11.34,6.78a72.24,72.24,0,0,1-14,6.5C116.64,73.53,94.51,74.53,87,57c-.76-1.77-3.34-.24-2.59,1.51C89.24,69.79,101,74.7,112.6,74.76a63,63,0,0,0,22.29-4.26c8-3,14.48-8.1,22-11.93,3.11-1.58,16-5.38,17.47-.07.88,3.19-4.53,8.72-6.2,10.84-7.6,9.64-15.7,19.22-19.67,31-2.81,8.37-3.1,17.22.72,25.3s10.28,14.43,16.13,20.85c8.87,9.75,17.23,19.87,24.12,31.14,8.76,14.32,15.16,29.83,20.1,45.84,4.54,14.7,8.39,29.56,14.77,43.62,7.77,17.13,18.45,32.88,30.52,47.27a1.51,1.51,0,0,0,2.56-1.06c-1.3-19.73-2.55-39.6-.13-59.3,2.38-19.34,8-38.1,13.65-56.69,10-32.94,20.35-67,14.81-101.8-2.46-15.47-8.37-30.26-18.25-42.51-10.21-12.65-24-22-38.31-29.32A287.08,287.08,0,0,0,181.09,4.14c-16.5-4.91-33.82-6.07-50.21-.08A85.4,85.4,0,0,0,94.26,30.5c-5.6,7-13.37,18.17-10,27.69C84.91,60,87.81,59.21,87.16,57.39Z"/>
        </g>
        <g>
          <path d="M40,73.66C17.94,76.16,2.89,99.27,1.64,121.45s7.8,43.5,16.67,63.86c1.87,4.29,4.06,8.92,8.28,10.93,3.42,1.63,7.47,1.14,11.14.19,15.74-4.07,28.64-16,36.9-30S87,136.43,89.9,120.43c2.32-12.81,3.67-27-3.49-37.9C81.93,75.71,74.72,71.26,67.75,67c-6.62-4-15.2-8.05-21.6-3.69-4.53,3.09-6.22,9.54-11.21,11.8" style="fill: #5a3900"/>
          <path d="M40,72.16C17.9,75.12,3.45,95.89.59,116.89c-1.88,13.83,1,28,5.26,41.11,2.13,6.5,4.68,12.87,7.33,19.17,2.32,5.5,4.3,12,8.14,16.65,7.57,9.19,21.19,3.63,29.72-1.25,10.4-5.95,18.81-15.08,24.87-25.33,6.88-11.63,10.91-24.71,13.73-37.85,2.66-12.37,5.55-26.06,2.09-38.56C88,77.28,75.06,68.32,62.87,62.66c-5-2.3-11-4-16.17-1.39-5.56,2.81-7.12,9.64-12.52,12.57-1.7.92-.19,3.51,1.51,2.59,3.36-1.82,5.23-4.71,7.43-7.72C48,62.1,54.33,62,61.35,65.25c9.94,4.57,21.37,11.81,25.95,22.1,4.79,10.75,2.92,23.24.84,34.4-2.21,11.83-5.1,23.69-10,34.72a77.51,77.51,0,0,1-18.46,26.16,57.37,57.37,0,0,1-12.77,8.79c-5.12,2.55-12.62,5.75-18.38,4-5.92-1.83-8.16-9.12-10.37-14.22-2.66-6.16-5.27-12.36-7.56-18.67C6.34,150.79,3.1,138.57,3,126.06c-.12-22.14,13-47.7,37-50.9,1.89-.25,1.91-3.26,0-3Z"/>
        </g>
        <g>
          <path d="M17.94,160.64c-4.68-16.12-9.39-33-6-49.46C17.23,85,41.74,66.87,66.84,57.72a160.62,160.62,0,0,1,65-9.37c11.25.71,22.84,2.79,32.07,9.24,10.3,7.2,16.37,18.88,22,30.09L203.84,123c6.48,12.79,13.12,26.31,12.47,40.63s-8.41,27.08-15.94,39.2L168,254.85a331.33,331.33,0,0,0,5.53-54.72c.25-14.11-.5-28.66-6.37-41.49-12.08-26.44-44-39.48-73-37S38.86,139,15.13,155.8" style="fill: #5a3900"/>
          <path d="M19.38,160.24c-4.45-15.37-9.18-31.64-6.21-47.74,2.24-12.17,8.91-22.85,17.72-31.38C50.64,62,79.33,52.9,106.16,50.29c14.3-1.39,29.8-1.62,43.71,2.42,14.41,4.18,23.39,14.56,30.41,27.31,7.24,13.15,13.69,26.78,20.47,40.17s14.77,27.8,14.06,43.4C214,180.38,203.45,195,194.9,208.75l-28.2,45.34,2.74,1.16c3.84-21,6.11-42.59,5.57-64-.44-17.14-4-34.19-15.7-47.33-21.78-24.58-58-28.43-88-19.41-20.7,6.24-39.41,17.6-57,30-1.57,1.1-.07,3.71,1.51,2.59,27.48-19.37,60.15-37.76,95-33.72,15.09,1.75,30.16,7.64,41.52,17.88,12.92,11.66,18.29,27.65,19.35,44.69,1.42,22.76-1.15,46.13-5.24,68.5a1.51,1.51,0,0,0,2.74,1.16l28.2-45.34c8-12.81,17.25-26,19.75-41.2,2.43-14.84-3.24-29-9.68-42C200,111.72,192.34,96.4,184.37,81.3c-6.35-12-14.17-23.4-27-29.07-13.45-5.93-29.44-6.23-43.87-5.48C85.4,48.2,55.66,56.44,33.66,74.62c-10.49,8.67-19.07,20-22.56,33.34-4.65,17.74.44,36,5.39,53.08a1.5,1.5,0,0,0,2.89-.8Z"/>
        </g>
        <g>
          <path d="M17.36,156.08l24,78.93c1.29,4.24,2.6,8.53,4.91,12.32A46.53,46.53,0,0,0,54.73,257a207.15,207.15,0,0,0,29.34,22.53c6.42,4.07,13.51,7.91,21.11,7.69,9.34-.27,17.29-6.51,24.49-12.46,9.3-7.68,18.77-15.56,25.13-25.81,6.66-10.74,9.49-23.44,10.72-36a161.81,161.81,0,0,0-8.4-69.31,27.27,27.27,0,0,0-4.46-8.77c-4.89-5.77-13.22-6.95-20.77-7.49a359.37,359.37,0,0,0-80,3.22c-13.52,2.07-29,6.54-34.07,19.22" style="fill: #ffefd3"/>
          <path d="M15.91,156.48,33,212.85c2.68,8.84,5.16,17.77,8.09,26.52a42.22,42.22,0,0,0,12,18.09C64.63,268.25,78.32,279.81,93,286c15.68,6.66,28-2.12,39.76-11.92,12.55-10.42,23.86-21.49,29.38-37.21,5.72-16.3,6.51-34.69,5.23-51.77a165,165,0,0,0-3.84-25.09c-1.84-7.88-3.74-17.06-8.1-24-7.66-12.18-26.75-10.67-39.12-11a359.62,359.62,0,0,0-63.8,3.91C38.82,131,22.63,135.11,16.54,149c-.77,1.75,1.82,3.28,2.59,1.51,5.33-12.16,19.07-16.15,31.13-18.2a331.8,331.8,0,0,1,50.36-4.37q12.72-.2,25.43.5c7,.38,14.72.41,21,3.8,7.55,4.07,9.54,13.79,11.7,21.44a159.48,159.48,0,0,1,4.86,24.09c1.9,15.68,1.79,32-1.44,47.54-3.31,15.9-11.11,28.47-23,39.35C128,274.8,113.51,289.73,97.05,284.39c-7.35-2.38-14-7.2-20.29-11.6a203.93,203.93,0,0,1-19-15.13c-6.73-6-11.49-11.94-14.26-20.68-2.82-8.9-5.44-17.88-8.15-26.82L18.8,155.68c-.56-1.84-3.46-1.06-2.89.8Z"/>
        </g>
        <g>
          <path d="M16.75,154.1c8.65-.1,16.54-4.57,24.55-7.82,26.53-10.75,56.93-8.36,84.08.69,3.91,1.3,8,2.76,12.05,1.93s7.7-5,6.34-8.87l.09,5.55a27.37,27.37,0,0,1,11.05,2.23c3.69-4.66,4.2-11.31,2.35-17s-5.77-10.42-10.19-14.4C132.8,103.57,112.74,98,93.6,99.72c-9.17.84-18.39,3.36-25.86,8.75C61,113.31,56,120.25,49.22,125c-6,4.12-13,6.32-19.29,10s-12,9.5-12.43,16.74" style="fill: #5a3900"/>
          <path d="M16.75,155.6c12.4-.55,23.12-8,34.86-11.24a109.88,109.88,0,0,1,38.51-3.27c13.3,1.09,25.53,4.78,38.26,8.43,7.19,2.06,19,.26,16.84-9.88-.35-1.67-3-1.28-2.95.4l.09,5.55a1.53,1.53,0,0,0,1.5,1.5,29.87,29.87,0,0,1,10.65,2.18,1.52,1.52,0,0,0,1.69-.69c7.3-10.27,2.25-22.77-5.73-30.94-9.11-9.33-21.45-15.4-34.13-18.06-12.47-2.62-26.17-2.41-38.25,1.9a46.68,46.68,0,0,0-15.87,9.63c-5.66,5.15-10.54,11-17.32,14.75C33.52,132.2,17.59,136.33,16,151.66c-.2,1.92,2.8,1.9,3,0,1.66-15.95,22.1-18.59,32.62-26.62,6.05-4.62,10.71-10.82,16.88-15.28,6.46-4.68,14.23-7.11,22.07-8.19a71.94,71.94,0,0,1,43.36,7.49c12.41,6.64,30.57,22.68,19.69,38l1.69-.69a32.25,32.25,0,0,0-11.45-2.29l1.5,1.5-.09-5.55-2.95.4c1.23,5.86-5.6,7.59-9.9,6.92a55,55,0,0,1-8.31-2.37c-5-1.61-10.14-3-15.3-4.11a136.89,136.89,0,0,0-31-3.19A106.19,106.19,0,0,0,48.3,142.2c-10.54,3.26-20.32,9.9-31.56,10.4-1.92.09-1.93,3.09,0,3Z"/>
        </g>
        <path d="M27,145.54c-4.25,3.12-10.63,1.84-14.46-1.79s-5.5-9-6.11-14.24C4.1,109.21,16.36,89,33.81,78.33s39.1-12.67,59.28-9.44,39.21,11.35,57.75,19.94c3.85,1.78,7.86,3.73,10.36,7.17s3.06,7.55,3.64,11.6l3.68,25.57c-6.1,2.79-12.77,5.65-19.3,4.13-3.2-.74-6.07-2.48-9.18-3.56a42.72,42.72,0,0,0-11.44-1.82A311.26,311.26,0,0,0,24,143.39" style="fill: #5a3900"/>
        <g>
          <path d="M79,51.7c-.57-5.8-1-12.1,2.11-17,2.66-4.15,7.42-6.45,12.11-8,10.59-3.44,21.88-4,33-4,10.1,0,20.34.28,30,3.24S175,34.81,179.88,43.64a18.23,18.23,0,0,1,2.61,9.2c-.14,5-3.2,9.56-7,12.9-1.07,1-2.51,1.89-3.83,1.33s-1.64-2.19-2-3.54c-2.71-9.13-14-12.08-23.5-12.94A242.52,242.52,0,0,0,79,53.83l-.24-4.09" style="fill: #6351ff"/>
          <path d="M80.48,51.7c-.85-8.94-.37-17.31,8.63-21.75,8.16-4,17.93-5,26.88-5.49,16.48-.84,35.22-1.32,49.9,7.36,6.6,3.9,13.35,10.37,14.87,18.22a14.65,14.65,0,0,1-4.65,13c-5,4.24-5.27-1.89-7.42-4.71-7.07-9.28-21.65-9.44-32.14-10a248.08,248.08,0,0,0-57.92,4l1.9,1.45-.24-4.09c-.11-1.92-3.11-1.93-3,0l.24,4.09a1.53,1.53,0,0,0,1.9,1.45A242.57,242.57,0,0,1,145.19,52c8.06.72,19.11,2.47,22.62,10.93.81,1.95,1.1,4.57,3.31,5.51,2.5,1.06,4.93-1.06,6.57-2.68C190,53.63,181,37.93,168.69,30c-15.93-10.19-37.34-9.7-55.49-8.4-9.53.68-20.79,1.92-28.81,7.61-7.57,5.37-7.72,14-6.91,22.46.18,1.91,3.18,1.92,3,0Z"/>
        </g>
        <g>
          <path d="M48.92,196.38l29.17-6.14a6.14,6.14,0,0,1,3-.13,6.16,6.16,0,0,1,2.81,2.33c2.29,2.86,4.71,6.11,4.44,9.76-.41,5.62-6.85,8.75-12.46,9.21s-11.57-.51-16.67,1.89a4.54,4.54,0,0,1-2.71.73,3.76,3.76,0,0,1-2.07-1.68,50.53,50.53,0,0,1-6.8-12.72c-.46-1.26,0-3.42,1.22-2.92" style="fill: #fff"/>
          <path d="M49.32,197.83l23.33-4.91c1.76-.37,4-1.27,5.83-1.23,3.34.08,4.42,1.63,6,4.06,3.1,4.7,3,9.5-2.37,12.36-6,3.2-13,1.27-19.38,2.53-4.25.84-6.27,2.53-9.3-2.37-.6-1-5-10-4.63-10,1.91-.16,1.93-3.17,0-3-7.74.66,2.82,17.15,5.43,19.25a4.18,4.18,0,0,0,4,.88c3.54-.74,6.1-2.1,9.93-2.23,5.08-.16,10.19.21,14.89-2.11,9.09-4.47,7.73-14.3,1.07-20.58-3.54-3.33-8-1.3-12.27-.41l-23.33,4.91c-1.89.4-1.09,3.29.8,2.89Z"/>
        </g>
        <path d="M86.83,201.6l14.89-1.89c1.89-.24,1.91-3.24,0-3L86.83,198.6c-1.89.24-1.91,3.24,0,3Z"/>
        <g>
          <path d="M103.68,190.78c1.93,4.39-2.6,10.8,1.19,13.74a7.4,7.4,0,0,0,4.12,1.11c7.56.51,15.36,1,22.52-1.46,4.7-1.61,9.58-6.49,7.26-10.88-1.16-2.19-3.69-3.22-6.07-3.9a47.46,47.46,0,0,0-26.94.34" style="fill: #fff"/>
          <path d="M102.24,191.18c2,6.32-4,14.66,6,15.89,8.58,1.05,20.73,1.75,28-3.81,5.39-4.09,6.25-11.2-.47-14.34-9.14-4.27-21.07-3.37-30.46-.64a1.5,1.5,0,0,0,.8,2.89,47.39,47.39,0,0,1,21.7-1.36c3.41.61,6.79,1.09,8.78,4.07,3.13,4.69-3.26,8.16-7.21,9.35-5.26,1.59-13.25,2.24-18.71,1-2.89-.65-6.18-2.24-5.72-5.66.12-.92.34-1.83.45-2.75a12.34,12.34,0,0,0-.35-5.46c-.58-1.84-3.47-1.05-2.89.8Z"/>
        </g>
        <path d="M99.27,169.24a22.32,22.32,0,0,1,27.59-3c1.64,1,3.15-1.56,1.51-2.59a25.35,25.35,0,0,0-31.23,3.43c-1.38,1.36.74,3.48,2.12,2.12Z"/>
        <path d="M49.27,187.49l22.81-5.76c1.87-.47,1.08-3.37-.8-2.89l-22.81,5.76c-1.87.47-1.08,3.37.8,2.89Z"/>
        <path d="M95.23,219.71c-.86,6.91,3.25,12.57,7.35,17.72l.3-2.36-6.75,4.51c-1.6,1.07-.1,3.67,1.51,2.59l6.75-4.51a1.53,1.53,0,0,0,.3-2.36c-3.63-4.55-7.23-9.47-6.47-15.6.24-1.91-2.77-1.89-3,0Z"/>
        <path d="M98,261.88a29.71,29.71,0,0,1,17.25-9.62c1.9-.34,1.09-3.23-.8-2.89a32.3,32.3,0,0,0-18.57,10.39c-1.28,1.44.83,3.57,2.12,2.12Z"/>
        <path d="M65.14,198.11a2.47,2.47,0,0,1,3.14-1.85l-1-1a6.54,6.54,0,0,1,0,2.79l1.85-1-2.92-.68c-1.88-.44-2.68,2.46-.8,2.89l2.92.68a1.52,1.52,0,0,0,1.85-1,10.2,10.2,0,0,0,0-4.39,1.5,1.5,0,0,0-1-1,5.49,5.49,0,0,0-6.83,3.94c-.43,1.88,2.47,2.68,2.89.8Z"/>
        <path d="M121.23,193.12l1.25-3.3-1.85,1s.38.12.29.07.15.15.09,0a.82.82,0,0,1,.14.27c-.06-.16,0,.23,0,.05a1.54,1.54,0,0,0,1,1.85,1.51,1.51,0,0,0,1.85-1,3.45,3.45,0,0,0-2.62-4.13,1.56,1.56,0,0,0-1.85,1l-1.25,3.3a1.51,1.51,0,0,0,1,1.85,1.53,1.53,0,0,0,1.85-1Z"/>
        <path d="M108.79,215.18A54.49,54.49,0,0,0,129.12,213c1.84-.56,1.06-3.46-.8-2.89a52.27,52.27,0,0,1-19.53,2.1c-1.92-.15-1.91,2.85,0,3Z"/>
        <path d="M82.79,218.23h-18a1.5,1.5,0,0,0,0,3h18a1.5,1.5,0,0,0,0-3Z"/>
      </g>
    </g>
  </g>
</svg>
