<svg xmlns="http://www.w3.org/2000/svg" viewBox="0 0 117 211.4">
  <title>psy-rightAsset 2</title>
  <g id="Layer_2" data-name="Layer 2">
    <g id="Layer_1-2" data-name="Layer 1">
      <g>
        <g>
          <path d="M9.89,166.18a411.67,411.67,0,0,1,36.87-82c2-3.45,4.19-7,7.41-9.34s7.76-3.41,11.26-1.47c3.14,1.74,4.72,5.34,5.74,8.78a49.41,49.41,0,0,1,1.06,24.34,90.59,90.59,0,0,1-4,12.46l-29.13,77.7a25.94,25.94,0,0,1-3.47,7c-5.31,6.81-15.48,6.64-24.08,5.84-2.31-.22-4.74-.48-6.6-1.86-2.85-2.12-3.43-6.12-3.44-9.68A57.72,57.72,0,0,1,12.26,164.4" style="fill: #ffed5b"/>
          <path d="M11.33,166.58a414.47,414.47,0,0,1,23.54-57.41C39.32,100.3,44,91.45,49.22,83c2.93-4.71,7.44-10.31,13.7-8.74,5.71,1.43,7.08,8.33,8,13.42,2.11,11.22-.61,21.35-4.52,31.8Q60.72,134.76,55,150l-11.1,29.6q-2.77,7.4-5.55,14.8c-2.16,5.75-4.37,10.8-10.64,12.81-4.29,1.37-8.95,1.3-13.4,1-3-.2-5.68-.24-8.15-2C3.31,204.13,3.06,201.32,3,198c-.21-11.74,3.91-23.26,10.56-32.82,1.11-1.59-1.49-3.09-2.59-1.51A60,60,0,0,0,0,196.27c-.1,3.82.05,8.19,2.66,11.26s6.56,3.3,10.23,3.6c8.18.67,18.13.58,23.77-6.4,3.18-3.94,4.54-9.5,6.28-14.14l7.63-20.35,14.91-39.78c4.4-11.73,9.78-23.37,9.21-36.18-.34-7.59-1.9-20.89-11-23.1-10-2.44-16,8.29-20.14,15.43A418.18,418.18,0,0,0,8.44,165.78c-.6,1.84,2.3,2.63,2.89.8Z"/>
        </g>
        <g>
          <path d="M56.6,47.53A136.4,136.4,0,0,1,20.06,25.37,46.54,46.54,0,0,1,31,1.5C50,25.34,69.49,49.65,95.35,65.77c4.67,2.91,9.57,5.58,13.54,9.39s7,9.07,6.61,14.56l-6.3,1.57a3.74,3.74,0,0,1-2.49,0c-.94-.45-1.32-1.56-1.77-2.5-2.22-4.59-7.67-6.39-12.38-8.34a64.24,64.24,0,0,1-34.74-35.2"/>
          <path d="M57,46.08A137.9,137.9,0,0,1,28.92,30.43c-1.83-1.33-5.26-3.05-6.48-5s.08-4.84.74-6.93A46.31,46.31,0,0,1,32.07,2.56H29.94C42.61,18.47,55.37,34.45,70.33,48.3A165.11,165.11,0,0,0,92.45,65.7c9,5.83,21.68,11.51,21.55,24l1.1-1.45a32.85,32.85,0,0,1-4.73,1.17c-2.71.24-2.9-.09-4.48-2a20.17,20.17,0,0,0-4.28-4.37c-5-3.36-11.1-4.83-16.3-7.92a63.46,63.46,0,0,1-26-30.29c-.73-1.76-3.63-1-2.89.8A66.81,66.81,0,0,0,82.52,77a65.85,65.85,0,0,0,9.28,4.79c3.59,1.53,8,2.76,10.57,5.86,1.34,1.59,1.8,4.29,3.94,5.13,2.77,1.09,6.93-.94,9.59-1.6a1.53,1.53,0,0,0,1.1-1.45c.09-9.06-6.06-15.64-13.18-20.43-9.48-6.38-19-12.14-27.62-19.73C59.61,35,45.78,17.65,32.07.44a1.5,1.5,0,0,0-2.12,0,50.68,50.68,0,0,0-8.85,14.88c-.9,2.4-3,7.08-2.47,9.65.4,2,2,2.82,3.7,4.18A141.72,141.72,0,0,0,56.2,49c1.78.74,2.56-2.16.8-2.89Z"/>
        </g>
        <g>
          <path d="M57.12,71.49A47.37,47.37,0,0,1,69.43,37.81c1.08-1.17,2.74-2.38,4.12-1.57a3.54,3.54,0,0,1,1.31,2.83,32,32,0,0,1-2,14.94c1.1-4.4,4.53-7.78,7.82-10.91a5.81,5.81,0,0,1,2.07-1.46c3.07-1,5.21,3.14,5.45,6.36a36.07,36.07,0,0,1-4,19.27,28,28,0,0,1,8.26-13.72c1.67-1.52,3.75-2.89,6-2.68,2.71.26,4.74,2.88,5.13,5.57s-.5,5.41-1.59,7.9C97.73,74.07,90.3,82,83,89.72c-2.68,2.84-5.48,5.76-9.1,7.25s-8.3,1.13-10.78-1.88c-1.51-1.83-2-4.29-2.39-6.63l-2.47-14" style="fill: #ffefd3"/>
          <path d="M58.62,71.49a46.77,46.77,0,0,1,6-24.54,45.39,45.39,0,0,1,3-4.69,43.3,43.3,0,0,1,2.82-3.39q3.17-2,2.87.69c1.79,3.63-.69,10.57-1.93,14l2.89.8A19.35,19.35,0,0,1,79,46.85c.52-.54,1.92-2.56,2.72-2.68l4.5,1.74a6.94,6.94,0,0,1,.45,2.51c.65,6.22-1,12.57-3.77,18.11l2.74,1.16a27.09,27.09,0,0,1,6.7-11.94c2.12-2.12,5.8-5.7,9-1.12,1.55,2.19.57,5.55-.22,7.8C98.56,70,92.92,76.64,87.67,82.49,83,87.72,76,97.91,67.85,96.16,60.76,94.63,60.73,79.82,59.71,74c-.33-1.9-3.23-1.09-2.89.8,1.49,8.48,1,24.88,13.23,24.47,5.25-.17,9.36-3.75,12.85-7.31A163.21,163.21,0,0,0,95.45,77.88C100,72,111.09,57,101.68,50.54c-8.79-6.06-17.11,10.12-18.9,16.34-.46,1.6,2,2.71,2.74,1.16,3.15-6.38,8.18-20.94,1.32-26.73-6.18-5.21-13.91,7.53-15.41,12.31-.58,1.86,2.25,2.59,2.89.8,1.7-4.75,4-13,1.4-17.83-1.78-3.33-5.19-1.93-7.35.17-9,8.72-13.05,22.54-12.75,34.74,0,1.93,3,1.93,3,0Z"/>
        </g>
      </g>
    </g>
  </g>
</svg>
