<svg xmlns="http://www.w3.org/2000/svg" viewBox="0 0 298.49 348.05">
  <title>withAsset 2</title>
  <g id="Layer_2" data-name="Layer 2">
    <g id="Layer_1-2" data-name="Layer 1">
      <g>
        <g>
          <path d="M12.45,138.28c3,16.82,5.76,35.08-2.13,50.23-1.75,3.37-4,6.5-5.25,10.08s-1.29,7.9,1.13,10.83a37,37,0,0,0,3.92,3.45c6.93,6.32,5.52,17.27,5.46,26.65C15.5,251,18.85,263.29,27.74,270.6c9.16,7.54,22,8.26,33.83,8.64,13.07.42,26.83.69,38.37-5.45,7.48-4,13.38-10.33,19-16.71Q134.3,239.51,148,220.55c5.4-7.47,10.67-15.21,13.6-24,5.5-16.36,1.07-36.61-13.11-46.45-6.36-4.42-14-6.48-21.49-8.47L86.66,131c-12-3.2-24.19-6.42-36.63-6.94s-25.37,1.86-35.58,9" style="fill: #ccab69"/>
          <path d="M11,138.68c1.67,9.48,3.28,19.09,2.91,28.75a52.5,52.5,0,0,1-2.43,14.46c-1.55,4.7-4.27,8.58-6.43,13-2.66,5.39-3.64,11.95,1,16.57,3.21,3.21,6,5.28,7.26,9.92,1.1,4,1,8.3.9,12.41-.28,14.58,1.61,30.5,14.63,39.52s32.4,8.18,47.37,7.55c8.16-.35,16.38-1.65,23.75-5.36,7.74-3.9,13.81-10.27,19.47-16.69,12.6-14.29,24.93-29.32,35.33-45.3,8.31-12.76,13.05-27.1,9.31-42.28-3.58-14.54-13.87-23.89-27.83-28.44-10.75-3.51-21.9-6-32.83-8.9-11.16-3-22.29-6.21-33.59-8.62-18.87-4-39.46-4.7-56.12,6.49-1.59,1.07-.09,3.67,1.51,2.59,14.85-10,33.12-10.16,50.14-6.93,18.06,3.42,35.83,9,53.59,13.7,15.33,4.07,31.81,7.4,39.41,23,6.94,14.26,4.27,30.17-3.46,43.46-8.9,15.31-20.71,29.35-32.15,42.81-5.25,6.17-10.5,12.6-16.85,17.68-7.36,5.9-16.11,8.66-25.41,9.51a169.53,169.53,0,0,1-24.37,0c-7.89-.42-16.15-1.34-23.19-5.23-15.46-8.56-15.63-26-15.69-41.47,0-6.27-.65-13.17-5.08-18-3.67-4-7.61-6-6-12.43,1.12-4.58,4.27-8.41,6.26-12.62,7.35-15.6,4.4-33.54,1.53-49.86-.33-1.9-3.23-1.09-2.89.8Z"/>
        </g>
        <g>
          <path d="M32.15,74.35c-11-7.76-7.9-22.47-12.36-23.39C14.36,49.84,2.84,70.19,1.69,91a40.2,40.2,0,0,0,0,8.24q1.62,16,4.32,31.84a5.22,5.22,0,0,0,1.37,3.23,5,5,0,0,0,2.7.91,59,59,0,0,0,28.37-3.53c7.57-2.93,15-8,17.6-15.7a24.85,24.85,0,0,0,1-10.85C56,93.44,48.5,82.93,39,77.55,35.09,75.37,34.9,76.29,32.15,74.35Z" style="fill: #7f3500"/>
          <path d="M32.91,73.06c-7-5.3-6.74-12.47-9.52-19.88-1.23-3.28-3.71-4.74-6.93-2.8C11.3,53.5,8.23,60.74,6,66A80.1,80.1,0,0,0,.1,92.21c-.59,9.87,1.5,20.17,3,29.91.54,3.61.38,9,2.42,12.16s6.77,2.73,10,2.83c15.54.45,38.77-5.43,42.68-23.15,1.88-8.5-.61-17.91-5.25-25.12a38.78,38.78,0,0,0-9.27-10c-3.37-2.54-7.29-3.56-10.73-5.79-1.63-1.05-3.13,1.54-1.51,2.59,1.93,1.24,4,1.79,6.08,2.81a32.75,32.75,0,0,1,9.46,7.46,34.27,34.27,0,0,1,8.75,20.83c1,18.58-19.3,26.3-34.8,27.27-3.86.24-11.18,1-13.31-2.76-.82-1.46-.78-4.58-1-6.19q-.52-3.27-1-6.54c-1.19-8.27-2.92-17-2.51-25.39A78.23,78.23,0,0,1,7.13,71.52c2-5.85,4.79-12.89,9.37-17.29,2-1.89,3.17-2.37,4.21.45.8,2.18,1,4.61,1.61,6.85a25,25,0,0,0,9.07,14.12C32.93,76.82,34.43,74.21,32.91,73.06Z"/>
        </g>
        <g>
          <path d="M44.35,14C71.8-10.56,92,9.14,216.29,8c14.52-.13,43.91-1.3,58.37,18,5.9,7.87,8.08,17.83,10.12,27.44,9,42.29,17.89,86.3,7.61,128.28-1.64,6.69-3.76,13.29-4.73,20.11-1.23,8.64-.58,17.42-.18,26.14a453.69,453.69,0,0,1-8.71,111.58c-.39,1.89-.88,3.95-2.4,5.14s-3.36,1.2-5.16,1.23l-25.4.47c-5,.09-10.22.14-14.73-2-6.13-3-9-8.5-10.47-11.2-11.12-20.29-16.69-30.46-24.83-37.21-15.06-12.5-35.46-10.42-39-10a56.72,56.72,0,0,0-19,6c-22.65,11-40.36,34.55-41.62,45.42-.14,1.2-.42,6-3.72,7.89a9.57,9.57,0,0,1-4.7.83l-25.65.12c-10,0-20.65-.12-28.81-5.83-9.88-6.92-13.22-20-14-32C17,273.45,29.73,239.45,33.89,204.71c1.84-15.35,1-24.76-.59-34.18-2.91-17.47-12.83-34.67-16.83-44.15-11-26.07-3.54-53.07-.68-63.41C17.68,56.11,24.76,31.59,44.35,14Z" style="fill: #00127f"/>
          <path d="M45.41,15.1C57.34,4.49,71,2.59,86.5,3.28c29.26,1.3,58.34,4.9,87.65,5.81,19.86.61,39.91-.64,59.72.7,9.08.61,18.39,2.24,26.57,6.41,10.21,5.21,16.47,14,19.78,24.85,3.5,11.47,5.45,23.58,7.75,35.34,2.67,13.68,5,27.45,6.33,41.33a223.25,223.25,0,0,1,.67,37.87c-1,13.92-4.8,26.79-7.74,40.33-2.58,11.91-1.54,23.88-1.09,35.94q.76,20.3-.3,40.61-1.05,20.08-3.88,40-1.36,9.58-3.14,19.09c-.51,2.75-.59,6.56-1.81,9-2.53,5.13-8.17,3.88-12.63,4-6.47.12-12.93.28-19.4.36-6.93.08-13.51-.6-18.56-5.86-3.15-3.28-5.09-7.72-7.25-11.65-2.65-4.81-5.29-9.63-8.11-14.34-8.66-14.48-19.45-25.21-36.8-28.12-15-2.52-29.46.86-42.56,8.57-14.29,8.41-28.56,21.86-35.15,37.36a29.7,29.7,0,0,0-1.93,7c-.67,4-2.21,6.49-6.87,6.69-3.93.17-7.91,0-11.84.06-11.44.05-24.3,1.52-35.31-2.26C16.25,334,19.4,298.65,21.93,278.63c3.22-25.5,10.89-50.23,13.67-75.81A112.43,112.43,0,0,0,26.27,144c-4.3-9.77-9.64-19.05-12.09-29.53-2.7-11.57-2.53-23.69-.56-35.37A130.32,130.32,0,0,1,26.5,39.77,91.25,91.25,0,0,1,45.41,15.1c1.43-1.31-.7-3.42-2.12-2.12-13.53,12.38-22.68,28.79-28,46.24-5.06,16.66-7.9,34.27-4.92,51.6,1.84,10.68,6.5,20,11,29.68,5.08,10.9,9.31,22,11,34C36,199.7,29.13,225.08,24,249.62c-4.83,23.26-10.76,50.2-3.77,73.62C22.89,332.05,28,340,36.57,344,46.83,348.81,59,347.74,70,347.69c6.4,0,13,.43,19.38-.13,4.14-.36,6.63-2.65,7.72-6.6.7-2.54.74-5.09,1.67-7.59a49,49,0,0,1,5.92-10.72c11.8-17,31.47-32.89,52.65-35.24,17.61-2,35,4,45.59,18.6,5.93,8.21,10.61,17.36,15.47,26.22,4.34,7.92,9.48,14.25,19.05,15.44,6.28.78,12.82.18,19.13.06l10.75-.2c2.67,0,5.78.33,8.32-.7,3.68-1.49,4.27-5.28,5-8.74,1.42-6.95,2.62-13.95,3.68-21a456,456,0,0,0,4.92-83.33c-.46-13.83-1.6-27.13,1.78-40.73,3.25-13.08,6.24-25.85,7.11-39.35,1.73-26.86-2.42-53.73-7.6-80-4.06-20.59-5.93-46.54-25.73-58.54C250.3,6.4,232.64,6.37,216.29,6.52c-38.41.36-76.51-2-114.75-5.2C85.23,0,66.89-2.32,52.11,6.4A56.91,56.91,0,0,0,43.29,13C41.84,14.26,44,16.38,45.41,15.1Z"/>
        </g>
        <g>
          <path d="M32.94,156.49a211.9,211.9,0,0,0,2.42,40.57c.86,5.49,2,11.09,5,15.79,4.92,7.81,14.42,12,23.66,12.07s18.19-3.39,26.1-8.14c3.76-2.26,7.47-4.94,9.58-8.78,2.31-4.2,2.41-9.23,2.35-14a303.78,303.78,0,0,0-4.4-47.5" style="fill: #1593ff"/>
          <path d="M31.44,156.49a218.53,218.53,0,0,0,1.14,31c.85,7.74,1.56,16.09,4.87,23.23,5.9,12.7,20.72,17.36,33.78,15.11,12.57-2.16,29.66-9.8,31.87-23.8,1.39-8.76.21-18.31-.47-27.1-.74-9.66-2-19.27-3.59-28.82-.32-1.9-3.21-1.09-2.89.8A299.53,299.53,0,0,1,100.5,194c.08,8.35-1.49,15-8.7,19.94a56.12,56.12,0,0,1-19.68,8.67c-15.25,3.24-30.14-3.67-34.05-19.35-3.75-15-4.12-31.38-3.63-46.75.06-1.93-2.94-1.93-3,0Z"/>
        </g>
      </g>
    </g>
  </g>
</svg>
